<!DOCTYPE svg PUBLIC "-//W3C//DTD SVG 1.1//EN" "http://www.w3.org/Graphics/SVG/1.1/DTD/svg11.dtd">
<svg xmlns="http://www.w3.org/2000/svg" xmlns:xlink="http://www.w3.org/1999/xlink" version="1.1" width="601px" height="401px" viewBox="-0.5 -0.5 601 401" style="background-color: rgb(255, 255, 255);"><defs/><g><rect x="100" y="40" width="80" height="80" fill="#cc0000" stroke="#000000" stroke-width="2" pointer-events="none"/><rect x="100" y="160" width="80" height="80" fill="#cccc00" stroke="#000000" stroke-width="2" pointer-events="none"/><rect x="100" y="280" width="80" height="80" fill="#0000cc" stroke="#000000" stroke-width="2" pointer-events="none"/><rect x="420" y="120" width="80" height="50" fill="#cc0000" stroke="none" pointer-events="none"/><rect x="420" y="160" width="80" height="80" fill="#cccc00" stroke="none" pointer-events="none"/><rect x="420" y="210" width="80" height="70" fill="#0000cc" stroke="none" pointer-events="none"/><rect x="460" y="170" width="40" height="70" fill="#cccc00" stroke="none" pointer-events="none"/><path d="M 419.86 264.43 L 189.57 317.61" fill="none" stroke="#000000" stroke-width="2" stroke-miterlimit="10" pointer-events="none"/><path d="M 181.78 319.41 L 185.15 316.22 L 189.57 317.61 L 186.21 320.81 Z" fill="#000000" stroke="#000000" stroke-width="2" stroke-miterlimit="10" pointer-events="none"/><path d="M 419.86 199.86 L 189.83 199.86" fill="none" stroke="#000000" stroke-width="2" stroke-miterlimit="10" pointer-events="none"/><path d="M 181.83 199.86 L 185.83 197.5 L 189.83 199.86 L 185.83 202.21 Z" fill="#000000" stroke="#000000" stroke-width="2" stroke-miterlimit="10" pointer-events="none"/><path d="M 420.43 136.43 L 189.56 82.14" fill="none" stroke="#000000" stroke-width="2" stroke-miterlimit="10" pointer-events="none"/><path d="M 181.78 80.31 L 186.21 78.93 L 189.56 82.14 L 185.13 83.51 Z" fill="#000000" stroke="#000000" stroke-width="2" stroke-miterlimit="10" pointer-events="none"/><rect x="460" y="240" width="40" height="40" fill="#cccccc" stroke="none" pointer-events="none"/><rect x="420" y="120" width="80" height="160" fill="none" stroke="#000000" stroke-width="2" pointer-events="none"/></g></svg>