<!DOCTYPE svg PUBLIC "-//W3C//DTD SVG 1.1//EN" "http://www.w3.org/Graphics/SVG/1.1/DTD/svg11.dtd">
<svg xmlns="http://www.w3.org/2000/svg" xmlns:xlink="http://www.w3.org/1999/xlink" version="1.1" width="601px" height="402px" viewBox="-0.5 -0.5 601 402" style="background-color: rgb(255, 255, 255);"><defs><linearGradient x1="0%" y1="100%" x2="0%" y2="0%" id="mx-gradient-0000cc-1-cccccc-1-s-0"><stop offset="0%" style="stop-color:#CCCCCC"/><stop offset="100%" style="stop-color:#0000CC"/></linearGradient><linearGradient x1="0%" y1="0%" x2="0%" y2="100%" id="mx-gradient-cccc00-1-0000cc-1-s-0"><stop offset="0%" style="stop-color:#CCCC00"/><stop offset="100%" style="stop-color:#0000CC"/></linearGradient><linearGradient x1="0%" y1="0%" x2="0%" y2="100%" id="mx-gradient-cc0000-1-cccc00-1-s-0"><stop offset="0%" style="stop-color:#CC0000"/><stop offset="100%" style="stop-color:#CCCC00"/></linearGradient></defs><g><rect x="420" y="240" width="80" height="40" fill="url(#mx-gradient-0000cc-1-cccccc-1-s-0)" stroke="none" pointer-events="none"/><rect x="100" y="40" width="80" height="80" fill="#cc0000" stroke="#000000" stroke-width="2" pointer-events="none"/><rect x="220" y="160" width="80" height="80" fill="url(#mx-gradient-cccc00-1-0000cc-1-s-0)" stroke="#000000" stroke-width="2" pointer-events="none"/><rect x="100" y="280" width="80" height="80" fill="#0000cc" stroke="#000000" stroke-width="2" pointer-events="none"/><rect x="420" y="150" width="80" height="90" fill="url(#mx-gradient-cccc00-1-0000cc-1-s-0)" stroke="none" pointer-events="none"/><path d="M 252.52 247.38 L 179.76 320.14" fill="none" stroke="#000000" stroke-width="2" stroke-miterlimit="10" pointer-events="none"/><path d="M 258.18 241.72 L 254.41 249.26 L 250.64 245.49 Z" fill="#000000" stroke="#000000" stroke-width="2" stroke-miterlimit="10" pointer-events="none"/><path d="M 409.52 200.14 L 299.76 200.14" fill="none" stroke="#000000" stroke-width="2" stroke-miterlimit="10" pointer-events="none"/><path d="M 417.52 200.14 L 409.52 202.8 L 409.52 197.47 Z" fill="#000000" stroke="#000000" stroke-width="2" stroke-miterlimit="10" pointer-events="none"/><path d="M 410.48 134.35 L 179.76 80.14" fill="none" stroke="#000000" stroke-width="2" stroke-miterlimit="10" pointer-events="none"/><path d="M 418.27 136.18 L 409.87 136.94 L 411.09 131.75 Z" fill="#000000" stroke="#000000" stroke-width="2" stroke-miterlimit="10" pointer-events="none"/><rect x="420" y="120" width="80" height="30" fill="url(#mx-gradient-cc0000-1-cccc00-1-s-0)" stroke="none" pointer-events="none"/><rect x="420" y="120" width="80" height="160" fill="none" stroke="#000000" stroke-width="2" pointer-events="none"/></g></svg>