<!DOCTYPE svg PUBLIC "-//W3C//DTD SVG 1.1//EN" "http://www.w3.org/Graphics/SVG/1.1/DTD/svg11.dtd">
<svg xmlns="http://www.w3.org/2000/svg" xmlns:xlink="http://www.w3.org/1999/xlink" version="1.1" width="601px" height="401px" viewBox="-0.5 -0.5 601 401" style="background-color: rgb(255, 255, 255);"><defs/><g><rect x="420" y="210" width="80" height="70" fill="#999999" stroke="none" pointer-events="none"/><rect x="260" y="220" width="80" height="80" fill="#cccc00" stroke="none" pointer-events="none"/><rect x="260" y="220" width="40" height="40" fill="#0000cc" stroke="none" pointer-events="none"/><rect x="100" y="40" width="80" height="80" fill="#cc0000" stroke="#000000" stroke-width="2" pointer-events="none"/><rect x="260" y="220" width="80" height="80" fill="none" stroke="#000000" stroke-width="2" pointer-events="none"/><rect x="100" y="280" width="80" height="80" fill="#0000cc" stroke="#000000" stroke-width="2" pointer-events="none"/><rect x="420" y="120" width="80" height="80" fill="#cc0000" stroke="none" pointer-events="none"/><rect x="420" y="180" width="80" height="60" fill="#cccc00" stroke="none" pointer-events="none"/><rect x="420" y="180" width="40" height="30" fill="#0000cc" stroke="none" pointer-events="none"/><path d="M 260 260 L 187.98 314.02" fill="none" stroke="#000000" stroke-width="2" stroke-miterlimit="10" pointer-events="none"/><path d="M 181.58 318.82 L 183.37 314.53 L 187.98 314.02 L 186.19 318.3 Z" fill="#000000" stroke="#000000" stroke-width="2" stroke-miterlimit="10" pointer-events="none"/><path d="M 420 200 L 347.98 254.02" fill="none" stroke="#000000" stroke-width="2" stroke-miterlimit="10" pointer-events="none"/><path d="M 341.58 258.82 L 343.37 254.53 L 347.98 254.02 L 346.19 258.3 Z" fill="#000000" stroke="#000000" stroke-width="2" stroke-miterlimit="10" pointer-events="none"/><path d="M 420 160 L 189.46 83.15" fill="none" stroke="#000000" stroke-width="2" stroke-miterlimit="10" pointer-events="none"/><path d="M 181.87 80.62 L 186.41 79.66 L 189.46 83.15 L 184.92 84.12 Z" fill="#000000" stroke="#000000" stroke-width="2" stroke-miterlimit="10" pointer-events="none"/><rect x="420" y="120" width="80" height="160" fill="none" stroke="#000000" stroke-width="2" pointer-events="none"/></g></svg>