<!DOCTYPE svg PUBLIC "-//W3C//DTD SVG 1.1//EN" "http://www.w3.org/Graphics/SVG/1.1/DTD/svg11.dtd">
<svg xmlns="http://www.w3.org/2000/svg" xmlns:xlink="http://www.w3.org/1999/xlink" version="1.1" width="601px" height="401px" viewBox="-0.5 -0.5 601 401" style="background-color: rgb(255, 255, 255);"><defs><linearGradient x1="0%" y1="100%" x2="0%" y2="0%" id="mx-gradient-cccc00-1-999999-1-s-0"><stop offset="0%" style="stop-color:#999999"/><stop offset="100%" style="stop-color:#CCCC00"/></linearGradient><linearGradient x1="0%" y1="100%" x2="0%" y2="0%" id="mx-gradient-0000cc-1-cccc00-1-s-0"><stop offset="0%" style="stop-color:#CCCC00"/><stop offset="100%" style="stop-color:#0000CC"/></linearGradient><linearGradient x1="0%" y1="0%" x2="0%" y2="100%" id="mx-gradient-cc0000-1-0000cc-1-s-0"><stop offset="0%" style="stop-color:#CC0000"/><stop offset="100%" style="stop-color:#0000CC"/></linearGradient></defs><g><rect x="420" y="230" width="80" height="20" fill="#cccc00" stroke="none" pointer-events="none"/><rect x="420" y="140" width="80" height="20" fill="#0000cc" stroke="none" pointer-events="none"/><rect x="420" y="240" width="80" height="40" fill="url(#mx-gradient-cccc00-1-999999-1-s-0)" stroke="none" pointer-events="none"/><rect x="100" y="40" width="80" height="80" fill="#cc0000" stroke="#000000" stroke-width="2" pointer-events="none"/><rect x="260" y="220" width="80" height="80" fill="url(#mx-gradient-0000cc-1-cccc00-1-s-0)" stroke="#000000" stroke-width="2" pointer-events="none"/><rect x="100" y="280" width="80" height="80" fill="#0000cc" stroke="#000000" stroke-width="2" pointer-events="none"/><rect x="420" y="150" width="80" height="90" fill="url(#mx-gradient-0000cc-1-cccc00-1-s-0)" stroke="none" pointer-events="none"/><path d="M 251.81 266.14 L 180 320" fill="none" stroke="#000000" stroke-width="2" stroke-miterlimit="10" pointer-events="none"/><path d="M 258.21 261.34 L 253.41 268.27 L 250.21 264.01 Z" fill="#000000" stroke="#000000" stroke-width="2" stroke-miterlimit="10" pointer-events="none"/><path d="M 411.81 206.14 L 340 260" fill="none" stroke="#000000" stroke-width="2" stroke-miterlimit="10" pointer-events="none"/><path d="M 418.21 201.34 L 413.41 208.27 L 410.21 204.01 Z" fill="#000000" stroke="#000000" stroke-width="2" stroke-miterlimit="10" pointer-events="none"/><path d="M 410.03 133.67 L 180 80" fill="none" stroke="#000000" stroke-width="2" stroke-miterlimit="10" pointer-events="none"/><path d="M 417.82 135.49 L 409.43 136.27 L 410.64 131.08 Z" fill="#000000" stroke="#000000" stroke-width="2" stroke-miterlimit="10" pointer-events="none"/><rect x="420" y="120" width="80" height="30" fill="url(#mx-gradient-cc0000-1-0000cc-1-s-0)" stroke="none" pointer-events="none"/><rect x="420" y="120" width="80" height="160" fill="none" stroke="#000000" stroke-width="2" pointer-events="none"/></g></svg>