<!DOCTYPE svg PUBLIC "-//W3C//DTD SVG 1.1//EN" "http://www.w3.org/Graphics/SVG/1.1/DTD/svg11.dtd">
<svg xmlns="http://www.w3.org/2000/svg" xmlns:xlink="http://www.w3.org/1999/xlink" version="1.1" width="601px" height="401px" viewBox="-0.5 -0.5 601 401" style="background-color: rgb(255, 255, 255);"><defs><linearGradient x1="0%" y1="100%" x2="0%" y2="0%" id="mx-gradient-000000-1-cc0000-1-s-0"><stop offset="0%" style="stop-color:#CC0000"/><stop offset="100%" style="stop-color:#000000"/></linearGradient><linearGradient x1="0%" y1="0%" x2="0%" y2="100%" id="mx-gradient-cc0000-1-0000cc-1-s-0"><stop offset="0%" style="stop-color:#CC0000"/><stop offset="100%" style="stop-color:#0000CC"/></linearGradient><linearGradient x1="0%" y1="0%" x2="0%" y2="100%" id="mx-gradient-0000cc-1-ff0080-1-s-0"><stop offset="0%" style="stop-color:#0000CC"/><stop offset="100%" style="stop-color:#FF0080"/></linearGradient><linearGradient x1="0%" y1="100%" x2="0%" y2="0%" id="mx-gradient-ff0080-1-ffccff-1-s-0"><stop offset="0%" style="stop-color:#FFCCFF"/><stop offset="100%" style="stop-color:#FF0080"/></linearGradient><linearGradient x1="0%" y1="0%" x2="0%" y2="100%" id="mx-gradient-ffccff-1-999999-1-s-0"><stop offset="0%" style="stop-color:#FFCCFF"/><stop offset="100%" style="stop-color:#999999"/></linearGradient><linearGradient x1="0%" y1="100%" x2="0%" y2="0%" id="mx-gradient-cccc00-1-cc0000-1-s-0"><stop offset="0%" style="stop-color:#CC0000"/><stop offset="100%" style="stop-color:#CCCC00"/></linearGradient><linearGradient x1="0%" y1="100%" x2="0%" y2="0%" id="mx-gradient-cccc00-1-0000cc-1-s-0"><stop offset="0%" style="stop-color:#0000CC"/><stop offset="100%" style="stop-color:#CCCC00"/></linearGradient></defs><g><rect x="480" y="240" width="80" height="20" fill="#ffccff" stroke="none" pointer-events="none"/><rect x="480" y="210" width="80" height="20" fill="#ff0080" stroke="none" pointer-events="none"/><rect x="480" y="180" width="80" height="20" fill="#0000cc" stroke="none" pointer-events="none"/><rect x="480" y="150" width="80" height="20" fill="#cc0000" stroke="none" pointer-events="none"/><rect x="480" y="120" width="80" height="20" fill="#000000" stroke="none" pointer-events="none"/><rect x="480" y="130" width="80" height="30" fill="url(#mx-gradient-000000-1-cc0000-1-s-0)" stroke="none" pointer-events="none"/><rect x="480" y="160" width="80" height="30" fill="url(#mx-gradient-cc0000-1-0000cc-1-s-0)" stroke="none" pointer-events="none"/><rect x="480" y="190" width="80" height="30" fill="url(#mx-gradient-0000cc-1-ff0080-1-s-0)" stroke="none" pointer-events="none"/><rect x="480" y="220" width="80" height="30" fill="url(#mx-gradient-ff0080-1-ffccff-1-s-0)" stroke="none" pointer-events="none"/><rect x="480" y="250" width="80" height="30" fill="url(#mx-gradient-ffccff-1-999999-1-s-0)" stroke="none" pointer-events="none"/><rect x="320" y="180" width="80" height="30" fill="#0000cc" stroke="none" pointer-events="none"/><rect x="320" y="150" width="80" height="30" fill="#cc0000" stroke="none" pointer-events="none"/><rect x="320" y="100" width="80" height="50" fill="#000000" stroke="none" pointer-events="none"/><rect x="320" y="130" width="80" height="30" fill="url(#mx-gradient-000000-1-cc0000-1-s-0)" stroke="none" pointer-events="none"/><rect x="320" y="160" width="80" height="30" fill="url(#mx-gradient-cc0000-1-0000cc-1-s-0)" stroke="none" pointer-events="none"/><rect x="320" y="190" width="80" height="30" fill="url(#mx-gradient-0000cc-1-ff0080-1-s-0)" stroke="none" pointer-events="none"/><rect x="320" y="100" width="80" height="120" fill="none" stroke="#000000" stroke-width="2" pointer-events="none"/><rect x="180" y="40" width="80" height="80" fill="url(#mx-gradient-cccc00-1-cc0000-1-s-0)" stroke="#000000" stroke-width="2" pointer-events="none"/><rect x="180" y="200" width="80" height="80" fill="url(#mx-gradient-cccc00-1-0000cc-1-s-0)" stroke="#000000" stroke-width="2" pointer-events="none"/><path d="M 312.14 196.55 L 260 240" fill="none" stroke="#000000" stroke-width="2" stroke-miterlimit="10" pointer-events="none"/><path d="M 318.28 191.43 L 313.84 198.6 L 310.43 194.5 Z" fill="#000000" stroke="#000000" stroke-width="2" stroke-miterlimit="10" pointer-events="none"/><path d="M 469.76 160 L 400 160" fill="none" stroke="#000000" stroke-width="2" stroke-miterlimit="10" pointer-events="none"/><path d="M 477.76 160 L 469.76 162.67 L 469.76 157.33 Z" fill="#000000" stroke="#000000" stroke-width="2" stroke-miterlimit="10" pointer-events="none"/><path d="M 312.14 123.45 L 260 80" fill="none" stroke="#000000" stroke-width="2" stroke-miterlimit="10" pointer-events="none"/><path d="M 318.28 128.57 L 310.43 125.5 L 313.84 121.4 Z" fill="#000000" stroke="#000000" stroke-width="2" stroke-miterlimit="10" pointer-events="none"/><rect x="480" y="120" width="80" height="160" fill="none" stroke="#000000" stroke-width="2" pointer-events="none"/><rect x="40" y="120" width="80" height="80" fill="#cccc00" stroke="#000000" stroke-width="2" pointer-events="none"/><path d="M 173.86 88.19 L 120 160" fill="none" stroke="#000000" stroke-width="2" stroke-miterlimit="10" pointer-events="none"/><path d="M 178.66 81.79 L 175.99 89.79 L 171.73 86.59 Z" fill="#000000" stroke="#000000" stroke-width="2" stroke-miterlimit="10" pointer-events="none"/><path d="M 173.86 231.81 L 120 160" fill="none" stroke="#000000" stroke-width="2" stroke-miterlimit="10" pointer-events="none"/><path d="M 178.66 238.21 L 171.73 233.41 L 175.99 230.21 Z" fill="#000000" stroke="#000000" stroke-width="2" stroke-miterlimit="10" pointer-events="none"/><rect x="320" y="280" width="80" height="80" fill="#ffccff" stroke="#000000" stroke-width="2" pointer-events="none"/><path d="M 472.76 247.24 L 400 320" fill="none" stroke="#000000" stroke-width="2" stroke-miterlimit="10" pointer-events="none"/><path d="M 478.42 241.58 L 474.65 249.12 L 470.88 245.35 Z" fill="#000000" stroke="#000000" stroke-width="2" stroke-miterlimit="10" pointer-events="none"/></g></svg>